{"title":"Julian Casablancas - 11th Dimension [Music Video] 1080p [Sbyky]","uid":9922176,"size":110096220,"categoryP":"video","categoryS":"music_videos","magnet":"?xt=urn:btih:eca039091d506f45915bacf0dbf9d79aafe79db4&amp;dn=Julian+Casablancas+-+11th+Dimension+%5BMusic+Video%5D+1080p+%5BSbyky%5D&amp;tr=udp%3A%2F%2Ftracker.openbittorrent.com%3A80&amp;tr=udp%3A%2F%2Fopen.demonii.com%3A1337&amp;tr=udp%3A%2F%2Ftracker.coppersurfer.tk%3A6969&amp;tr=udp%3A%2F%2Fexodus.desync.com%3A6969","seeders":1,"leechers":0,"uploader":"Sbyky","files":1,"time":1397010968,"description":"\n\nGeneral\nComplete name                            : Julian Casablancas - 11th Dimension [Music Video] 1080p [Sbyky].MP4\nFormat                                   : MPEG-4\nFormat profile                           : Base Media\nCodec ID                                 : isom\nFile size                                : 105 MiB\nDuration                                 : 4mn 32s\nOverall bit rate mode                    : Variable\nOverall bit rate                         : 3 234 Kbps\nEncoded date                             : UTC 2013-12-10 13:55:04\nTagged date                              : UTC 2013-12-10 13:55:04\n\nVideo\nID                                       : 1\nFormat                                   : AVC\nFormat/Info                              : Advanced Video Codec\nFormat profile                           : &lt;a class=&quot;__cf_email__&quot; href=&quot;/cdn-cgi/l/email-protection&quot; data-cfemail=&quot;3d75545a557d7109130d&quot;&gt;[email&amp;#160;protected]&lt;/a&gt;&lt;script cf-hash='f9e31' type=&quot;text/javascript&quot;&gt;\n/* &lt;![CDATA[ */!function(){try{var t=&quot;currentScript&quot;in document?document.currentScript:function(){for(var t=document.getElementsByTagName(&quot;script&quot;),e=t.length;e--;)if(t[e].getAttribute(&quot;cf-hash&quot;))return t[e]}();if(t&amp;&amp;t.previousSibling){var e,r,n,i,c=t.previousSibling,a=c.getAttribute(&quot;data-cfemail&quot;);if(a){for(e=&quot;&quot;,r=parseInt(a.substr(0,2),16),n=2;a.length-n;n+=2)i=parseInt(a.substr(n,2),16)^r,e+=String.fromCharCode(i);e=document.createTextNode(e),c.parentNode.replaceChild(e,c)}}}catch(u){}}();/* ]]&gt; */&lt;/script&gt;\nFormat settings, CABAC                   : Yes\nFormat settings, ReFrames                : 3 frames\nCodec ID                                 : avc1\nCodec ID/Info                            : Advanced Video Coding\nDuration                                 : 4mn 32s\nBit rate                                 : 3 107 Kbps\nWidth                                    : 1 920 pixels\nHeight                                   : 1 080 pixels\nDisplay aspect ratio                     : 16:9\nFrame rate mode                          : Constant\nFrame rate                               : 24.000 fps\nColor space                              : YUV\nChroma subsampling                       : 4:2:0\nBit depth                                : 8 bits\nScan type                                : Progressive\nBits/(Pixel*Frame)                       : 0.062\nStream size                              : 101 MiB (96%)\nEncoded date                             : UTC 2013-12-10 13:55:04\nTagged date                              : UTC 2013-12-10 13:55:04\n\nAudio\nID                                       : 2\nFormat                                   : AAC\nFormat/Info                              : Advanced Audio Codec\nFormat profile                           : LC\nCodec ID                                 : 40\nDuration                                 : 4mn 32s\nBit rate mode                            : Variable\nBit rate                                 : 126 Kbps\nChannel(s)                               : 2 channels\nChannel positions                        : Front: L R\nSampling rate                            : 44.1 KHz\nCompression mode                         : Lossy\nStream size                              : 4.08 MiB (4%)\nEncoded date                             : UTC 2013-12-10 13:54:22\nTagged date                              : UTC 2013-12-10 13:54:22\n\nShared By Sbyky\n","torrent":{"xt":"urn:btih:eca039091d506f45915bacf0dbf9d79aafe79db4","amp;dn":"Julian+Casablancas+-+11th+Dimension+%5BMusic+Video%5D+1080p+%5BSbyky%5D","amp;tr":["udp%3A%2F%2Ftracker.openbittorrent.com%3A80","udp%3A%2F%2Fopen.demonii.com%3A1337","udp%3A%2F%2Ftracker.coppersurfer.tk%3A6969","udp%3A%2F%2Fexodus.desync.com%3A6969"],"infoHash":"eca039091d506f45915bacf0dbf9d79aafe79db4","infoHashBuffer":{"type":"Buffer","data":[236,160,57,9,29,80,111,69,145,91,172,240,219,249,215,154,175,231,157,180]},"announce":[],"urlList":[]}}